<?xml version="1.0" encoding="utf-8"?>
<!-- Generator: Adobe Illustrator 17.0.0, SVG Export Plug-In . SVG Version: 6.00 Build 0)  -->
<!DOCTYPE svg PUBLIC "-//W3C//DTD SVG 1.1//EN" "http://www.w3.org/Graphics/SVG/1.1/DTD/svg11.dtd">
<svg version="1.1" id="Layer_1" xmlns:svg="http://www.w3.org/2000/svg"
	 xmlns="http://www.w3.org/2000/svg" xmlns:xlink="http://www.w3.org/1999/xlink" x="0px" y="0px" width="141.732px"
	 height="141.732px" viewBox="19.634 -0.616 141.732 141.732" enable-background="new 19.634 -0.616 141.732 141.732"
	 xml:space="preserve">
<symbol  id="svg_2" viewBox="-121.949 -121.949 243.898 243.898">
	<path fill="#CC3399" d="M60.451-25.483c-0.038-0.194-0.077-0.387-0.118-0.582c-3.18-17.726-8.901-31.651-17.164-41.775
		c-0.542-0.62-1.086-1.24-1.628-1.862c-1.047-0.931-2.095-1.338-3.142-1.222c-0.698,0.271-1.396,0.582-2.095,0.931
		c-6.051,3.22-10.881,10.027-14.487,20.422c-0.156-0.078-0.311-0.136-0.465-0.175c-6.749-2.095-13.75-3.142-21.004-3.142
		c-7.059,0-13.905,0.989-20.538,2.967c-5.236,1.551-10.162,3.705-14.778,6.458c-0.175,0.077-0.34,0.165-0.495,0.262l0.553-0.378
		c-6.245-9.193-12.703-14.565-19.375-16.116c-0.698-0.194-1.396-0.329-2.095-0.407c-1.396,0.233-2.657,1.494-3.782,3.782
		l-0.116,0.291c-5.469,11.947-7.447,26.938-5.935,44.975c0.116,1.591,0.271,3.142,0.465,4.655
		c1.823,17.804,5.585,30.817,11.287,39.04l2.851,3.724c2.909,3.568,6.225,6.768,9.949,9.6l3.724,2.676
		c5.431,3.568,11.345,6.303,17.745,8.204c6.633,1.978,13.478,2.967,20.538,2.967c10.162,0,19.762-1.997,28.8-5.992l3.724-1.804
		c7.72-3.996,14.216-9.213,19.491-15.651c1.087-1.32,2.017-2.56,2.793-3.724c6.167-8.922,9.25-18.638,9.25-29.149
		c0-2.173-1.299-11.811-3.898-28.916L60.451-25.483L60.451-25.483z M86.167,86.167C62.39,110.022,33.669,121.949,0,121.949
		c-33.667,0-62.409-11.927-86.225-35.782C-110.042,62.39-121.949,33.669-121.949,0s11.907-62.429,35.724-86.284
		C-62.409-110.06-33.668-121.949,0-121.949c33.669,0,62.39,11.889,86.167,35.665C110.022-62.429,121.949-33.667,121.949,0
		S110.022,62.39,86.167,86.167L86.167,86.167z"/>
	<path fill="#FF9933" d="M60.451-25.483l0.058,0.058C63.107-8.32,64.407,1.319,64.407,3.491c0,10.511-3.082,20.227-9.25,29.149
		c-0.776,1.164-1.707,2.404-2.793,3.724C47.09,42.802,40.593,48.02,32.874,52.015l-3.724,1.804
		c-9.038,3.996-18.638,5.992-28.8,5.992c-7.059,0-13.905-0.989-20.538-2.967c-6.4-1.9-12.315-4.635-17.745-8.204l-3.724-2.676
		c-3.724-2.832-7.04-6.032-9.949-9.6l-2.851-3.724c-5.702-8.222-9.464-21.236-11.287-39.04c-0.194-1.513-0.349-3.064-0.465-4.655
		c-1.513-18.036,0.465-33.027,5.935-44.975l0.116-0.291c1.125-2.288,2.385-3.549,3.782-3.782c0.698,0.078,1.396,0.214,2.095,0.407
		c6.671,1.551,13.129,6.924,19.375,16.116l-0.553,0.378c0.155-0.097,0.32-0.185,0.495-0.262c4.615-2.754,9.542-4.907,14.778-6.458
		c6.633-1.978,13.478-2.967,20.538-2.967c7.253,0,14.255,1.047,21.004,3.142c0.156,0.038,0.311,0.097,0.465,0.175
		c3.607-10.396,8.436-17.202,14.487-20.422c0.698-0.349,1.396-0.659,2.095-0.931c1.047-0.116,2.095,0.291,3.142,1.222
		c0.543,0.621,1.087,1.242,1.628,1.862c8.263,10.124,13.983,24.049,17.164,41.775C60.374-25.871,60.412-25.678,60.451-25.483
		L60.451-25.483z"/>
	<g>
		<path fill="#FFFFFF" d="M-7.04,77.789h4.305c0,0.077-0.02,0.233-0.058,0.465l-0.116,1.978c0.465-0.35,1.009-0.718,1.629-1.105
			c0.62-0.349,1.26-0.659,1.92-0.931c0.659-0.233,1.338-0.427,2.036-0.582c0.738-0.194,1.396-0.291,1.978-0.291v2.559
			c-0.62,0-1.32,0.136-2.095,0.408c-0.699,0.271-1.455,0.62-2.269,1.046c-0.698,0.427-1.338,0.912-1.92,1.455
			c-0.62,0.582-1.067,1.144-1.338,1.687l0.116,3.608c0,0.387,0.02,0.893,0.058,1.513c0.038,0.505,0.077,0.911,0.116,1.222
			c0.038,0.311,0.097,0.505,0.175,0.582h-4.771c0.078-0.038,0.155-0.253,0.233-0.64c0.038-0.389,0.077-0.853,0.116-1.396
			l0.116-8.844c0-0.465-0.02-1.067-0.058-1.805C-6.904,78.178-6.962,77.866-7.04,77.789L-7.04,77.789z M-10.531,81.629l-0.058,2.036
			c-0.038,0.427-0.058,1.009-0.058,1.745l-0.058,2.211c0,0.505,0.04,1.008,0.116,1.513c0.038,0.505,0.097,0.99,0.175,1.455
			c0.078,0.427,0.214,0.68,0.407,0.756l-5.178-0.058l0.116-1.396c-0.737,0.543-1.551,0.989-2.444,1.337
			c-0.893,0.35-1.785,0.524-2.676,0.524c-0.891,0-1.784-0.116-2.676-0.349c-0.853-0.233-1.591-0.582-2.211-1.047
			c-0.66-0.464-1.183-1.066-1.571-1.804c-0.387-0.737-0.582-1.628-0.582-2.676c0-1.32,0.058-2.618,0.175-3.898
			c0.116-1.281,0.175-2.58,0.175-3.899V77.44c0-0.194-0.02-0.407-0.058-0.64h4.945c-0.194,0.311-0.329,0.834-0.407,1.571
			c-0.116,0.738-0.194,1.513-0.233,2.327c-0.077,0.97-0.116,1.765-0.116,2.385v1.805c0,0.737,0.058,1.357,0.175,1.862
			c0.116,0.505,0.311,0.893,0.582,1.164c0.311,0.311,0.698,0.524,1.164,0.64c0.504,0.118,1.125,0.175,1.862,0.175
			c0.427,0,0.815-0.077,1.164-0.233c0.388-0.156,0.756-0.349,1.105-0.582c0.388-0.233,0.718-0.505,0.989-0.815
			c0.311-0.271,0.582-0.562,0.815-0.873c0.038-1.125,0.058-1.96,0.058-2.501c0.038-0.853,0.058-1.707,0.058-2.56v-0.873
			c0-0.427-0.02-0.853-0.058-1.281c0-0.387-0.038-0.775-0.116-1.164c-0.038-0.387-0.097-0.62-0.175-0.698h5.178
			c-0.078,0.116-0.155,0.407-0.233,0.873c-0.078,0.659-0.136,1.183-0.175,1.571C-10.395,80.097-10.453,80.775-10.531,81.629
			L-10.531,81.629z M6.982,77.789h4.305c-0.038,0.118-0.058,0.271-0.058,0.465l-0.118,1.978c0.465-0.35,1.009-0.718,1.629-1.105
			c0.659-0.349,1.299-0.659,1.919-0.931c0.66-0.233,1.338-0.427,2.036-0.582c0.738-0.194,1.396-0.291,1.978-0.291v2.559
			c-0.62,0-1.318,0.136-2.095,0.408c-0.698,0.233-1.455,0.582-2.269,1.046c-0.659,0.427-1.318,0.912-1.978,1.455
			c-0.582,0.582-1.008,1.144-1.28,1.687l0.116,3.608c0,0.387,0.02,0.893,0.059,1.513c0.038,0.505,0.077,0.911,0.116,1.222
			c0.04,0.311,0.097,0.505,0.175,0.582h-4.77c0.077-0.038,0.156-0.253,0.233-0.64c0.038-0.427,0.077-0.893,0.116-1.396l0.118-8.844
			c0-0.465-0.02-1.067-0.058-1.805C7.117,78.216,7.059,77.906,6.982,77.789L6.982,77.789z M-32.349,71.447
			c0.698,0.311,1.3,0.68,1.804,1.105c0.543,0.427,0.989,0.95,1.338,1.572c0.311,0.62,0.465,1.318,0.465,2.095
			c0,1.087-0.329,2.017-0.989,2.792c-0.621,0.738-1.455,1.358-2.502,1.863c-1.009,0.464-2.173,0.853-3.491,1.164
			c-1.358,0.271-2.638,0.484-3.84,0.64c-1.242,0.116-2.463,0.194-3.665,0.233c-0.969,0.038-1.92,0.058-2.851,0.058v6.342
			c0.038,0.426,0.097,0.853,0.175,1.28c0.04,0.427,0.116,0.699,0.233,0.815h-5.12c0.116-0.116,0.213-0.505,0.291-1.164
			c0.116-0.776,0.194-1.531,0.233-2.269c0.04-0.815,0.058-1.804,0.058-2.967v-7.971c0-0.465,0-0.99,0-1.572
			c0-0.815-0.02-1.435-0.058-1.862c-0.038-0.543-0.097-1.144-0.175-1.804c-0.077-0.543-0.175-0.99-0.291-1.338
			c-0.155-0.388-0.329-0.62-0.524-0.698h5.353c0.387,0,0.756,0.02,1.105,0.058c0.893,0,1.9,0.02,3.025,0.058
			c0.969,0.038,1.998,0.116,3.084,0.233c0.776,0.038,1.455,0.097,2.036,0.173c0.853,0.156,1.591,0.311,2.211,0.465
			C-33.707,70.944-33.009,71.175-32.349,71.447z M-36.247,73.833c-0.66-0.271-1.378-0.465-2.153-0.582
			c-0.737-0.118-1.513-0.194-2.327-0.233c-0.776-0.038-1.493-0.058-2.153-0.058h-2.909c-0.155,1.24-0.233,2.424-0.233,3.549
			c-0.04,1.202-0.058,2.385-0.058,3.549c1.047,0,1.842,0,2.385,0c0.815-0.038,1.591-0.077,2.327-0.116
			c0.465-0.04,1.164-0.118,2.095-0.233c0.815-0.077,1.609-0.253,2.385-0.524c0.776-0.233,1.435-0.582,1.978-1.047
			c0.582-0.504,0.873-1.164,0.873-1.977c0-0.543-0.213-1.009-0.64-1.396C-35.103,74.375-35.627,74.066-36.247,73.833L-36.247,73.833
			z M48.349,76.277c0.543,0.349,0.99,0.815,1.338,1.396c0.349,0.62,0.524,1.396,0.524,2.327c0,0.464-0.04,0.931-0.118,1.396
			c-0.038,0.426-0.116,0.873-0.233,1.337h-3.84c0.118-0.271,0.214-0.62,0.291-1.046c0.077-0.35,0.118-0.718,0.118-1.105
			c0-0.815-0.233-1.416-0.699-1.804c-0.426-0.389-1.046-0.582-1.862-0.582c-0.505,0-1.067,0.038-1.687,0.116
			c-0.62,0.116-1.222,0.311-1.804,0.582c-0.543,0.233-1.029,0.562-1.455,0.989c-0.389,0.427-0.582,0.932-0.582,1.514
			c0,0.464,0.214,0.833,0.64,1.104c0.426,0.311,0.95,0.562,1.571,0.756c0.582,0.194,1.164,0.349,1.745,0.465l3.259,0.582
			c0.737,0.155,1.455,0.368,2.153,0.64c0.738,0.271,1.358,0.62,1.862,1.046c0.505,0.427,0.756,0.951,0.756,1.572
			c0,0.737-0.291,1.357-0.873,1.862c-0.582,0.465-1.26,0.853-2.036,1.164c-0.738,0.271-1.571,0.485-2.502,0.64
			c-0.813,0.118-1.513,0.175-2.095,0.175c-1.202,0-2.366-0.077-3.491-0.233c-1.202-0.193-2.347-0.484-3.433-0.873l-2.618-1.046
			c-0.271-0.118-0.446-0.175-0.522-0.175c0.038-0.038,0.173-0.156,0.407-0.349l0.756-0.756c0.311-0.311,0.542-0.562,0.698-0.755
			c0.194-0.194,0.311-0.33,0.349-0.408c1.009,0.738,2.113,1.281,3.318,1.629c1.202,0.349,2.444,0.524,3.722,0.524h0.756
			c0.465-0.04,0.873-0.098,1.222-0.175c0.427-0.077,0.815-0.194,1.164-0.349c0.311-0.118,0.465-0.291,0.465-0.524
			c0-0.311-0.271-0.562-0.815-0.756c-0.582-0.193-1.28-0.387-2.095-0.582l-2.676-0.582c-0.932-0.193-1.823-0.464-2.678-0.813
			c-0.813-0.35-1.493-0.776-2.036-1.281c-0.542-0.505-0.813-1.164-0.813-1.978c0-1.164,0.311-2.153,0.931-2.967
			c0.62-0.853,1.416-1.531,2.385-2.036c0.969-0.543,2.017-0.931,3.142-1.164c1.087-0.233,2.113-0.349,3.082-0.349
			c0.776,0,1.552,0.077,2.327,0.233C47.107,75.753,47.767,75.966,48.349,76.277L48.349,76.277z M27.055,71.04
			c0.233-0.156,0.505-0.271,0.815-0.349c0.349-0.077,0.64-0.118,0.873-0.118s0.524,0.04,0.873,0.118
			c0.311,0.077,0.602,0.193,0.873,0.349s0.484,0.349,0.64,0.582c0.194,0.233,0.291,0.505,0.291,0.815
			c0,0.349-0.097,0.62-0.291,0.815c-0.156,0.232-0.368,0.426-0.64,0.582c-0.271,0.155-0.562,0.271-0.873,0.349
			c-0.311,0.078-0.602,0.116-0.873,0.116s-0.562-0.038-0.873-0.116c-0.311-0.078-0.582-0.194-0.815-0.349
			c-0.311-0.156-0.543-0.35-0.698-0.582c-0.156-0.194-0.233-0.465-0.233-0.815c0-0.311,0.077-0.582,0.233-0.815
			C26.549,71.389,26.783,71.196,27.055,71.04z M31.36,76.917c-0.077,0.118-0.156,0.524-0.233,1.222
			c-0.077,0.621-0.135,1.474-0.175,2.56c-0.077,0.738-0.135,1.822-0.173,3.258l-0.118,11.636c0,0.699-0.135,1.32-0.407,1.863
			c-0.311,0.582-0.698,1.087-1.164,1.513c-0.465,0.388-1.008,0.738-1.629,1.047c-0.659,0.349-1.299,0.62-1.919,0.813
			c-0.582,0.156-1.24,0.311-1.978,0.465c-0.698,0.077-1.32,0.116-1.862,0.116c-0.815,0.04-1.649,0.059-2.502,0.059
			c-1.087,0-1.901,0-2.444,0v-3.259c0.311,0.118,0.659,0.214,1.046,0.291c0.427,0.118,0.873,0.194,1.338,0.233l2.56,0.118
			c0.931,0,1.706-0.098,2.327-0.291c0.582-0.118,1.046-0.389,1.395-0.815c0.35-0.389,0.602-0.893,0.756-1.513
			c0.156-0.66,0.271-1.474,0.349-2.445c0.038-0.464,0.058-0.893,0.058-1.28L26.53,79.476c0-0.543-0.02-1.105-0.058-1.687
			c-0.038-0.464-0.097-0.755-0.175-0.873L31.36,76.917L31.36,76.917z M16.873,89.251c0.156-0.194,0.368-0.35,0.64-0.465
			c0.272-0.115,0.524-0.194,0.756-0.233c0.311-0.077,0.562-0.116,0.755-0.116c0.194,0,0.447,0.038,0.756,0.116
			c0.233,0.038,0.505,0.118,0.815,0.233c0.233,0.116,0.426,0.271,0.582,0.465c0.193,0.193,0.291,0.426,0.291,0.698
			s-0.098,0.505-0.291,0.698c-0.156,0.156-0.349,0.311-0.582,0.465c-0.271,0.077-0.543,0.156-0.815,0.233
			c-0.271,0.077-0.524,0.116-0.756,0.116c-0.232,0-0.484-0.038-0.755-0.116c-0.271-0.078-0.524-0.156-0.756-0.233
			c-0.271-0.156-0.484-0.311-0.64-0.465c-0.194-0.193-0.291-0.426-0.291-0.698S16.678,89.444,16.873,89.251z"/>
	</g>
	<g>
		<path fill="none" stroke="#FFFFFF" stroke-width="5.85" stroke-linecap="square" stroke-miterlimit="3" d="M-46.836,2.909
			c0.698-1.202,1.784-2.307,3.258-3.316c2.832-1.862,6.245-2.793,10.24-2.793c3.646,0,6.788,0.776,9.425,2.327 M24.727-6.691
			c0.698-1.203,1.784-2.307,3.258-3.316c2.832-1.862,6.245-2.793,10.24-2.793c3.647,0,6.789,0.776,9.427,2.327"/>
		<g>
			<path fill="#FFFFFF" d="M15.476,15.942c0.62,1.202,0.368,2.501-0.755,3.898c-1.281,1.629-3.318,2.638-6.109,3.025
				c1.318,2.056,2.735,3.762,4.246,5.12c2.404,2.133,4.791,3.065,7.156,2.793l0.698,5.644c-5.275,0.659-10.182-1.804-14.719-7.389
				c-3.956,7.253-9.136,10.88-15.536,10.88v-5.702c2.987,0,5.663-1.395,8.029-4.189c1.551-1.784,2.832-3.956,3.84-6.516
				c-3.646,0.193-6.284-0.602-7.913-2.387c-1.358-1.513-1.494-3.238-0.407-5.177c0.659-1.164,1.609-1.92,2.851-2.269
				c0.155-0.038,0.311-0.077,0.465-0.118c0.504-0.116,1.047-0.155,1.629-0.116l11.229-0.815c0.038,0,0.097,0,0.175,0
				C12.489,12.509,14.196,13.615,15.476,15.942L15.476,15.942z"/>
		</g>
	</g>
	<path d="M18.591-23.903c3.319-1.118,8.107-2.154,14.365-3.106c5.186-0.756,10.341-1.472,15.464-2.147
		c6.641-0.697,11.515-0.149,14.619,1.642c0.996,0.559,1.755,1.195,2.273,1.908c0.159,0.256,0.321,0.548,0.491,0.877
		c0.91,1.789,1.664,4.191,2.263,7.208c0.297,1.484,0.521,2.814,0.677,3.991c0.692,4.847,0.688,8.865-0.013,12.052
		c-0.258,1.621-0.612,2.804-1.062,3.553c-1.574,3.186-4.643,5.894-9.211,8.122c-2.203,1.068-4.296,1.826-6.282,2.273
		c-5.21,1.53-10.32,2.291-15.334,2.282c-2.513,0.034-4.508-0.14-5.98-0.521c-3.537-0.723-6.931-2.717-10.181-5.983
		c-1.592-1.663-2.864-3.261-3.814-4.795C14.66,0.367,12.812-3.518,11.318-8.2c-0.453-1.914-0.905-3.828-1.358-5.743
		c-0.678-2.859,0.545-5.397,3.667-7.613c0.958-0.68,2.088-1.279,3.39-1.799C17.592-23.543,18.114-23.725,18.591-23.903
		L18.591-23.903z M-20.482-19.814c1.885,0.112,3.715,0.564,5.492,1.36c3.684,1.452,5.527,3.695,5.53,6.729
		c0.035,1.961,0.069,3.91,0.1,5.846c-0.101,4.887-0.876,9.102-2.327,12.648c-0.732,1.823-1.544,3.693-2.437,5.61
		c-2.231,4.055-5,6.966-8.308,8.731c-1.879,0.683-3.753,1.416-5.62,2.198c-4.776,1.407-9.939,2.061-15.488,1.964
		c-0.648-0.002-1.297-0.003-1.946-0.006c-1.584-0.095-3.169-0.291-4.753-0.585c-4.912-1.115-8.607-3.323-11.091-6.626
		c-0.602-0.778-1.268-2.047-2-3.806c-1.438-3.519-2.508-7.728-3.205-12.624c-0.092-1.258-0.199-2.726-0.322-4.403
		c-0.107-3.446,0.03-6.272,0.412-8.478c0.041-1.199,0.677-2.415,1.911-3.647c2.678-2.565,7.251-4.097,13.718-4.6
		c2.376-0.143,4.713-0.28,7.016-0.414c2.488-0.23,5.34-0.351,8.555-0.364C-28.83-20.431-23.909-20.275-20.482-19.814L-20.482-19.814
		z M-73.898-7.658c0.927,1.164,1.534,3.198,1.819,6.101c0.506,2.505,1.018,5.048,1.533,7.626c1.213,5.385,2.305,9.031,3.281,10.936
		c0.476,1.14,1.265,2.395,2.369,3.763c2.278,2.703,5.123,4.698,8.535,5.981c1.206,0.436,2.871,0.872,4.998,1.304
		c4.392,0.775,9.069,0.97,14.031,0.588c2.394-0.194,5.098-0.671,8.114-1.434c6.072-1.601,10.701-3.938,13.886-7.006
		c1.115-0.996,2.275-2.495,3.482-4.495c2.546-3.942,4.267-8.552,5.164-13.825c0.592-3.25,1.19-6.451,1.795-9.603
		C-4.957-8.411-4.82-9.073-4.48-9.708c0.719-1.35,2.178-2.098,4.379-2.245l-0.005-0.037c2.1-0.336,3.762,0.063,4.984,1.194
		c0.429,0.598,0.82,1.201,1.175,1.808c1.508,2.915,3.023,5.879,4.544,8.893c2.346,4.911,5.22,8.915,8.624,12.015
		c1.544,1.121,3.051,2.232,4.518,3.335c3.994,2.089,9.045,3.051,15.159,2.887c2.705-0.279,5.411-0.557,8.119-0.838
		c4.874-1.044,9.297-2.487,13.268-4.326c1.48-0.862,2.981-1.677,4.501-2.446c3.053-1.984,5.312-4.328,6.775-7.028
		c0.468-1.172,0.936-2.356,1.4-3.553c0.54-1.578,0.702-4.966,0.488-10.166c-0.166-2.569-0.301-5.004-0.407-7.304
		c-0.341-2.574-0.285-4.409,0.17-5.504c0.303-0.357,0.566-0.71,0.795-1.059c-0.286-2.729-0.644-5.611-1.071-8.648
		c-0.447-0.173-0.932-0.355-1.456-0.546c-3.556-0.297-8.948-0.25-16.179,0.138c-3.662,0.213-6.925,0.429-9.79,0.652
		c-2.745,0.358-5.527,0.72-8.347,1.087c-6.705,0.976-13.064,2.202-19.079,3.672c-4.061,1.152-8.119,2.342-12.17,3.568
		c-1.859,0.656-4.325,1.232-7.402,1.727l0.005,0.037c-0.822,0.017-1.643,0.023-2.467,0.016c-1.891,0.038-3.48-0.007-4.77-0.136
		c-1.975-0.226-6.103-0.607-12.383-1.146c-6.153-0.328-12.657-0.382-19.511-0.159c-3.377,0.106-6.153,0.243-8.325,0.412
		c-3.29,0.394-6.579,0.789-9.869,1.183c-7.245,1.038-12.577,2.109-15.997,3.214c-0.549,0.186-1.123,0.462-1.722,0.827
		c0.492,3.153,0.94,6.349,1.344,9.587C-74.761-8.619-74.333-8.306-73.898-7.658L-73.898-7.658z"/>
</symbol>
<g>
	<title>Layer 1</title>
	<g id="svg_4">
	</g>
	
		<use xlink:href="#svg_2"  width="243.898" height="243.898" id="svg_5" x="-121.949" y="-121.949" transform="matrix(0.5725 0 0 0.5725 90.5 70.2499)" overflow="visible"/>
	<g id="svg_6">
	</g>
</g>
</svg>
