<?xml version="1.0" encoding="utf-8"?>
<!-- Generator: Adobe Illustrator 15.1.0, SVG Export Plug-In . SVG Version: 6.00 Build 0)  -->
<!DOCTYPE svg PUBLIC "-//W3C//DTD SVG 1.1//EN" "http://www.w3.org/Graphics/SVG/1.1/DTD/svg11.dtd">
<svg version="1.1" id="Layer_1" xmlns="http://www.w3.org/2000/svg" xmlns:xlink="http://www.w3.org/1999/xlink" x="0px" y="0px"
	 width="550px" height="400px" viewBox="0 0 550 400" enable-background="new 0 0 550 400" xml:space="preserve">
<path fill-rule="evenodd" clip-rule="evenodd" fill="#CC3399" d="M326.95,178.55c-0.033-0.167-0.066-0.333-0.101-0.5
	c-2.733-15.233-7.649-27.2-14.75-35.9c-0.466-0.533-0.933-1.066-1.399-1.6c-0.9-0.8-1.8-1.15-2.7-1.05c-0.6,0.233-1.2,0.5-1.8,0.8
	c-5.2,2.767-9.351,8.617-12.45,17.55c-0.134-0.067-0.267-0.117-0.4-0.15c-5.8-1.8-11.816-2.7-18.05-2.7
	c-6.066,0-11.95,0.85-17.65,2.55c-4.5,1.333-8.733,3.184-12.7,5.55c-0.15,0.066-0.292,0.142-0.425,0.225L245,163
	c-5.367-7.9-10.917-12.517-16.65-13.85c-0.6-0.167-1.2-0.283-1.8-0.35c-1.2,0.2-2.283,1.284-3.25,3.25l-0.1,0.25
	c-4.7,10.267-6.4,23.15-5.1,38.65c0.1,1.367,0.233,2.7,0.4,4c1.567,15.3,4.8,26.483,9.7,33.55l2.45,3.2
	c2.5,3.066,5.35,5.816,8.55,8.25l3.2,2.3c4.667,3.066,9.75,5.417,15.25,7.05c5.7,1.7,11.583,2.55,17.65,2.55
	c8.733,0,16.983-1.716,24.75-5.149l3.2-1.55c6.634-3.434,12.217-7.917,16.75-13.45c0.934-1.134,1.733-2.2,2.4-3.2
	c5.3-7.667,7.949-16.017,7.949-25.05c0-1.867-1.116-10.15-3.35-24.85L326.95,178.55z M349.05,274.5
	c-20.434,20.5-45.116,30.75-74.05,30.75c-28.933,0-53.633-10.25-74.1-30.75c-20.467-20.434-30.7-45.116-30.7-74.05
	s10.233-53.65,30.7-74.15c20.467-20.433,45.167-30.65,74.1-30.65c28.934,0,53.616,10.217,74.05,30.65
	c20.5,20.5,30.75,45.217,30.75,74.15S369.55,254.066,349.05,274.5z"/>
<path fill-rule="evenodd" clip-rule="evenodd" fill="#FF9933" d="M326.95,178.55l0.05,0.05c2.233,14.7,3.35,22.983,3.35,24.85
	c0,9.033-2.649,17.383-7.949,25.05c-0.667,1-1.467,2.066-2.4,3.2c-4.533,5.533-10.116,10.017-16.75,13.45l-3.2,1.55
	c-7.767,3.434-16.017,5.149-24.75,5.149c-6.066,0-11.95-0.85-17.65-2.55c-5.5-1.633-10.583-3.983-15.25-7.05l-3.2-2.3
	c-3.2-2.434-6.05-5.184-8.55-8.25l-2.45-3.2c-4.9-7.066-8.133-18.25-9.7-33.55c-0.167-1.3-0.3-2.633-0.4-4
	c-1.3-15.5,0.4-28.383,5.1-38.65l0.1-0.25c0.967-1.966,2.05-3.05,3.25-3.25c0.6,0.067,1.2,0.184,1.8,0.35
	c5.733,1.333,11.283,5.95,16.65,13.85l-0.475,0.325c0.133-0.083,0.275-0.159,0.425-0.225c3.966-2.367,8.2-4.217,12.7-5.55
	c5.7-1.7,11.583-2.55,17.65-2.55c6.233,0,12.25,0.9,18.05,2.7c0.134,0.033,0.267,0.083,0.4,0.15c3.1-8.934,7.25-14.783,12.45-17.55
	c0.6-0.3,1.2-0.566,1.8-0.8c0.9-0.1,1.8,0.25,2.7,1.05c0.467,0.534,0.934,1.067,1.399,1.6c7.101,8.7,12.017,20.667,14.75,35.9
	C326.884,178.217,326.917,178.383,326.95,178.55z"/>
<g>
	<path fill-rule="evenodd" clip-rule="evenodd" fill="#FFFFFF" d="M268.95,267.3h3.7c0,0.066-0.017,0.2-0.05,0.4l-0.1,1.7
		c0.4-0.301,0.867-0.617,1.4-0.95c0.533-0.3,1.083-0.566,1.65-0.8c0.566-0.2,1.15-0.367,1.75-0.5c0.634-0.167,1.2-0.25,1.7-0.25
		v2.199c-0.533,0-1.134,0.117-1.8,0.351c-0.601,0.233-1.25,0.533-1.95,0.899c-0.6,0.367-1.15,0.784-1.65,1.25
		c-0.533,0.5-0.917,0.983-1.15,1.45l0.1,3.101c0,0.333,0.017,0.767,0.05,1.3c0.033,0.434,0.066,0.783,0.1,1.05
		c0.033,0.267,0.083,0.434,0.15,0.5h-4.1c0.067-0.033,0.133-0.217,0.2-0.55c0.033-0.334,0.066-0.733,0.1-1.2l0.1-7.6
		c0-0.4-0.017-0.917-0.05-1.551C269.067,267.634,269.017,267.366,268.95,267.3z M265.95,270.6l-0.05,1.75
		c-0.033,0.367-0.05,0.867-0.05,1.5l-0.05,1.9c0,0.434,0.034,0.866,0.1,1.3c0.033,0.434,0.083,0.851,0.15,1.25
		c0.067,0.367,0.184,0.584,0.35,0.65l-4.45-0.05l0.1-1.2c-0.633,0.467-1.333,0.85-2.1,1.149c-0.767,0.301-1.534,0.45-2.3,0.45
		s-1.533-0.1-2.3-0.3c-0.733-0.2-1.367-0.5-1.9-0.9c-0.567-0.399-1.017-0.916-1.35-1.55c-0.333-0.633-0.5-1.399-0.5-2.3
		c0-1.134,0.05-2.25,0.15-3.35c0.1-1.101,0.15-2.217,0.15-3.351V267c0-0.167-0.017-0.35-0.05-0.55h4.25
		c-0.167,0.267-0.283,0.717-0.35,1.35c-0.1,0.634-0.167,1.3-0.2,2c-0.066,0.834-0.1,1.517-0.1,2.05v1.551
		c0,0.633,0.05,1.166,0.15,1.6s0.267,0.767,0.5,1c0.267,0.267,0.6,0.45,1,0.55c0.433,0.101,0.967,0.15,1.6,0.15
		c0.367,0,0.7-0.066,1-0.2c0.333-0.134,0.65-0.3,0.95-0.5c0.333-0.2,0.617-0.434,0.85-0.7c0.267-0.233,0.5-0.483,0.7-0.75
		c0.033-0.967,0.05-1.684,0.05-2.149c0.033-0.733,0.05-1.467,0.05-2.2v-0.75c0-0.367-0.017-0.733-0.05-1.101
		c0-0.333-0.033-0.666-0.1-1c-0.033-0.333-0.083-0.533-0.15-0.6h4.45c-0.067,0.1-0.133,0.35-0.2,0.75
		c-0.067,0.566-0.117,1.017-0.15,1.35C266.067,269.283,266.017,269.866,265.95,270.6z M281,267.3h3.7
		c-0.033,0.101-0.05,0.233-0.05,0.4l-0.101,1.7c0.4-0.301,0.867-0.617,1.4-0.95c0.566-0.3,1.116-0.566,1.649-0.8
		c0.567-0.2,1.15-0.367,1.75-0.5c0.634-0.167,1.2-0.25,1.7-0.25v2.199c-0.533,0-1.133,0.117-1.8,0.351c-0.6,0.2-1.25,0.5-1.95,0.899
		c-0.566,0.367-1.133,0.784-1.7,1.25c-0.5,0.5-0.866,0.983-1.1,1.45l0.1,3.101c0,0.333,0.017,0.767,0.051,1.3
		c0.033,0.434,0.066,0.783,0.1,1.05s0.083,0.434,0.15,0.5H280.8c0.066-0.033,0.134-0.217,0.2-0.55c0.033-0.367,0.066-0.767,0.1-1.2
		l0.101-7.6c0-0.4-0.017-0.917-0.05-1.551C281.116,267.667,281.066,267.4,281,267.3z M247.2,261.85c0.6,0.267,1.117,0.584,1.55,0.95
		c0.467,0.367,0.85,0.816,1.15,1.351c0.267,0.533,0.4,1.133,0.4,1.8c0,0.934-0.283,1.733-0.85,2.399
		c-0.534,0.634-1.25,1.167-2.15,1.601c-0.867,0.399-1.867,0.733-3,1c-1.167,0.233-2.267,0.416-3.3,0.55
		c-1.067,0.1-2.117,0.167-3.15,0.2c-0.833,0.033-1.65,0.05-2.45,0.05v5.45c0.033,0.366,0.083,0.733,0.15,1.1
		c0.034,0.367,0.1,0.601,0.2,0.7h-4.4c0.1-0.1,0.183-0.434,0.25-1c0.1-0.667,0.167-1.316,0.2-1.95c0.034-0.7,0.05-1.55,0.05-2.55
		v-6.85c0-0.4,0-0.851,0-1.351c0-0.7-0.017-1.233-0.05-1.6c-0.033-0.467-0.083-0.983-0.15-1.55c-0.066-0.467-0.15-0.851-0.25-1.15
		c-0.133-0.333-0.283-0.533-0.45-0.6h4.6c0.333,0,0.65,0.017,0.95,0.05c0.767,0,1.633,0.017,2.6,0.05
		c0.833,0.033,1.717,0.1,2.65,0.2c0.667,0.033,1.25,0.083,1.75,0.149c0.733,0.134,1.367,0.267,1.9,0.4
		C246.033,261.417,246.633,261.616,247.2,261.85z M243.85,263.9c-0.567-0.233-1.184-0.4-1.85-0.5c-0.633-0.101-1.3-0.167-2-0.2
		c-0.667-0.033-1.283-0.05-1.85-0.05h-2.5c-0.133,1.066-0.2,2.083-0.2,3.05c-0.034,1.033-0.05,2.05-0.05,3.05c0.9,0,1.583,0,2.05,0
		c0.7-0.033,1.367-0.066,2-0.1c0.4-0.034,1-0.101,1.8-0.2c0.7-0.066,1.383-0.217,2.05-0.45c0.667-0.2,1.233-0.5,1.7-0.9
		c0.5-0.433,0.75-1,0.75-1.699c0-0.467-0.183-0.867-0.55-1.2C244.833,264.366,244.383,264.1,243.85,263.9z M316.55,266
		c0.467,0.3,0.851,0.7,1.15,1.2c0.3,0.533,0.45,1.2,0.45,2c0,0.399-0.034,0.8-0.101,1.2c-0.033,0.366-0.1,0.75-0.2,1.149h-3.3
		c0.101-0.233,0.184-0.533,0.25-0.899c0.066-0.301,0.101-0.617,0.101-0.95c0-0.7-0.2-1.217-0.601-1.55
		c-0.366-0.334-0.899-0.5-1.6-0.5c-0.434,0-0.917,0.033-1.45,0.1c-0.533,0.1-1.05,0.267-1.55,0.5c-0.467,0.2-0.884,0.483-1.25,0.85
		c-0.334,0.367-0.5,0.801-0.5,1.301c0,0.399,0.184,0.716,0.55,0.949c0.366,0.267,0.816,0.483,1.35,0.65c0.5,0.167,1,0.3,1.5,0.4
		l2.801,0.5c0.633,0.133,1.25,0.316,1.85,0.55c0.634,0.233,1.167,0.533,1.6,0.899c0.434,0.367,0.65,0.817,0.65,1.351
		c0,0.633-0.25,1.166-0.75,1.6c-0.5,0.4-1.083,0.733-1.75,1c-0.634,0.233-1.35,0.417-2.15,0.55c-0.699,0.101-1.3,0.15-1.8,0.15
		c-1.033,0-2.033-0.066-3-0.2c-1.033-0.166-2.017-0.416-2.95-0.75l-2.25-0.899c-0.233-0.101-0.383-0.15-0.449-0.15
		c0.033-0.033,0.149-0.134,0.35-0.3l0.65-0.65c0.267-0.267,0.466-0.483,0.6-0.649c0.167-0.167,0.267-0.284,0.3-0.351
		c0.867,0.634,1.816,1.101,2.851,1.4c1.033,0.3,2.1,0.45,3.199,0.45h0.65c0.4-0.034,0.75-0.084,1.05-0.15
		c0.367-0.066,0.7-0.167,1-0.3c0.267-0.101,0.4-0.25,0.4-0.45c0-0.267-0.233-0.483-0.7-0.65c-0.5-0.166-1.1-0.333-1.8-0.5l-2.3-0.5
		c-0.801-0.166-1.567-0.399-2.301-0.699c-0.699-0.301-1.283-0.667-1.75-1.101c-0.466-0.434-0.699-1-0.699-1.7
		c0-1,0.267-1.85,0.8-2.55c0.533-0.733,1.217-1.316,2.05-1.75c0.833-0.467,1.733-0.8,2.7-1c0.934-0.2,1.816-0.3,2.649-0.3
		c0.667,0,1.334,0.066,2,0.2C315.483,265.55,316.05,265.733,316.55,266z M298.25,261.5c0.2-0.134,0.434-0.233,0.7-0.3
		c0.3-0.066,0.55-0.101,0.75-0.101s0.45,0.034,0.75,0.101c0.267,0.066,0.517,0.166,0.75,0.3s0.416,0.3,0.55,0.5
		c0.167,0.2,0.25,0.434,0.25,0.7c0,0.3-0.083,0.533-0.25,0.7c-0.134,0.199-0.316,0.366-0.55,0.5c-0.233,0.133-0.483,0.233-0.75,0.3
		s-0.517,0.1-0.75,0.1s-0.483-0.033-0.75-0.1s-0.5-0.167-0.7-0.3c-0.267-0.134-0.467-0.301-0.6-0.5c-0.134-0.167-0.2-0.4-0.2-0.7
		c0-0.267,0.066-0.5,0.2-0.7C297.816,261.8,298.017,261.634,298.25,261.5z M301.95,266.55c-0.066,0.101-0.134,0.45-0.2,1.05
		c-0.066,0.534-0.116,1.267-0.15,2.2c-0.066,0.634-0.116,1.566-0.149,2.8l-0.101,10c0,0.601-0.116,1.134-0.35,1.601
		c-0.267,0.5-0.6,0.934-1,1.3c-0.4,0.333-0.866,0.634-1.4,0.9c-0.566,0.3-1.116,0.533-1.649,0.699c-0.5,0.134-1.066,0.267-1.7,0.4
		c-0.6,0.066-1.134,0.1-1.6,0.1c-0.7,0.034-1.417,0.051-2.15,0.051c-0.934,0-1.634,0-2.1,0v-2.801
		c0.267,0.101,0.566,0.184,0.899,0.25c0.367,0.101,0.75,0.167,1.15,0.2l2.2,0.101c0.8,0,1.466-0.084,2-0.25
		c0.5-0.101,0.899-0.334,1.199-0.7c0.301-0.334,0.517-0.767,0.65-1.3c0.134-0.567,0.233-1.267,0.3-2.101
		c0.033-0.399,0.05-0.767,0.05-1.1l-0.05-11.2c0-0.467-0.017-0.95-0.05-1.45c-0.033-0.399-0.083-0.649-0.15-0.75H301.95z
		 M289.5,277.15c0.134-0.167,0.316-0.301,0.55-0.4s0.45-0.167,0.65-0.2c0.267-0.066,0.483-0.1,0.649-0.1
		c0.167,0,0.384,0.033,0.65,0.1c0.2,0.033,0.434,0.101,0.7,0.2c0.2,0.1,0.366,0.233,0.5,0.4c0.166,0.166,0.25,0.366,0.25,0.6
		s-0.084,0.434-0.25,0.6c-0.134,0.134-0.3,0.267-0.5,0.4c-0.233,0.066-0.467,0.134-0.7,0.2s-0.45,0.1-0.65,0.1
		c-0.199,0-0.416-0.033-0.649-0.1s-0.45-0.134-0.65-0.2c-0.233-0.134-0.416-0.267-0.55-0.4c-0.167-0.166-0.25-0.366-0.25-0.6
		S289.333,277.316,289.5,277.15z"/>
</g>
<g>
	
		<path fill-rule="evenodd" clip-rule="evenodd" fill="none" stroke="#FFFFFF" stroke-width="5.85" stroke-linecap="square" stroke-miterlimit="3" d="
		M234.75,202.95c0.6-1.033,1.533-1.983,2.8-2.85c2.434-1.6,5.367-2.4,8.8-2.4c3.133,0,5.833,0.667,8.1,2 M296.25,194.7
		c0.6-1.034,1.533-1.983,2.8-2.85c2.434-1.6,5.367-2.4,8.8-2.4c3.134,0,5.834,0.667,8.101,2"/>
	<g>
		<path fill-rule="evenodd" clip-rule="evenodd" fill="#FFFFFF" d="M288.3,214.15c0.533,1.033,0.316,2.149-0.649,3.35
			c-1.101,1.4-2.851,2.267-5.25,2.6c1.133,1.767,2.35,3.233,3.649,4.4c2.066,1.833,4.117,2.634,6.15,2.4l0.6,4.85
			c-4.533,0.566-8.75-1.55-12.649-6.35c-3.4,6.233-7.851,9.35-13.351,9.35v-4.9c2.567,0,4.867-1.199,6.9-3.6
			c1.333-1.533,2.434-3.4,3.3-5.6c-3.133,0.166-5.4-0.517-6.8-2.051c-1.167-1.3-1.284-2.783-0.35-4.449
			c0.566-1,1.383-1.65,2.45-1.95c0.133-0.033,0.267-0.066,0.4-0.101c0.433-0.1,0.9-0.133,1.4-0.1l9.65-0.7c0.033,0,0.083,0,0.15,0
			C285.733,211.2,287.2,212.15,288.3,214.15z"/>
	</g>
</g>
<path fill-rule="evenodd" clip-rule="evenodd" d="M290.977,179.908c2.852-0.961,6.967-1.851,12.345-2.669
	c4.457-0.65,8.887-1.265,13.289-1.845c5.707-0.599,9.896-0.128,12.563,1.411c0.856,0.48,1.508,1.027,1.953,1.64
	c0.137,0.22,0.276,0.471,0.422,0.754c0.782,1.537,1.43,3.602,1.945,6.194c0.255,1.275,0.448,2.418,0.582,3.43
	c0.595,4.165,0.591,7.618-0.011,10.357c-0.222,1.393-0.526,2.41-0.913,3.053c-1.353,2.738-3.99,5.065-7.916,6.98
	c-1.893,0.918-3.692,1.569-5.399,1.953c-4.477,1.315-8.869,1.969-13.178,1.961c-2.16,0.029-3.874-0.12-5.139-0.448
	c-3.04-0.621-5.956-2.335-8.749-5.142c-1.368-1.429-2.461-2.802-3.278-4.121c-1.895-2.651-3.483-5.989-4.767-10.013
	c-0.389-1.645-0.778-3.29-1.167-4.935c-0.583-2.457,0.468-4.638,3.151-6.542c0.823-0.584,1.794-1.099,2.913-1.546
	C290.118,180.218,290.567,180.061,290.977,179.908z M257.398,183.422c1.62,0.096,3.193,0.485,4.72,1.169
	c3.166,1.248,4.75,3.175,4.752,5.783c0.03,1.685,0.059,3.36,0.086,5.024c-0.087,4.2-0.753,7.822-2,10.869
	c-0.629,1.567-1.327,3.174-2.094,4.821c-1.917,3.485-4.297,5.986-7.14,7.503c-1.615,0.587-3.225,1.217-4.83,1.889
	c-4.104,1.209-8.541,1.771-13.31,1.688c-0.557-0.002-1.115-0.003-1.672-0.005c-1.361-0.082-2.723-0.25-4.085-0.503
	c-4.221-0.958-7.397-2.856-9.531-5.694c-0.517-0.669-1.09-1.759-1.719-3.271c-1.236-3.024-2.155-6.641-2.754-10.849
	c-0.079-1.081-0.171-2.343-0.277-3.784c-0.092-2.961,0.026-5.39,0.354-7.286c0.035-1.03,0.582-2.075,1.642-3.134
	c2.301-2.204,6.231-3.521,11.789-3.953c2.042-0.123,4.05-0.241,6.029-0.356c2.138-0.198,4.589-0.302,7.352-0.313
	C250.224,182.892,254.453,183.026,257.398,183.422z M211.494,193.869c0.797,1,1.318,2.748,1.563,5.243
	c0.435,2.153,0.875,4.338,1.317,6.554c1.042,4.628,1.981,7.761,2.82,9.398c0.409,0.98,1.087,2.058,2.036,3.234
	c1.958,2.323,4.403,4.037,7.335,5.14c1.036,0.375,2.467,0.749,4.295,1.121c3.774,0.666,7.794,0.834,12.058,0.505
	c2.057-0.167,4.381-0.577,6.973-1.232c5.218-1.376,9.196-3.384,11.933-6.021c0.958-0.856,1.955-2.144,2.992-3.863
	c2.188-3.388,3.667-7.349,4.438-11.881c0.509-2.793,1.023-5.544,1.543-8.253c-0.057-0.592,0.061-1.161,0.353-1.707
	c0.618-1.16,1.872-1.803,3.763-1.929l-0.004-0.032c1.805-0.289,3.233,0.054,4.283,1.026c0.369,0.514,0.705,1.032,1.01,1.554
	c1.296,2.505,2.598,5.052,3.905,7.642c2.016,4.22,4.486,7.661,7.411,10.325c1.327,0.963,2.622,1.918,3.883,2.866
	c3.432,1.795,7.773,2.622,13.027,2.481c2.325-0.24,4.65-0.479,6.977-0.72c4.189-0.897,7.99-2.137,11.402-3.718
	c1.272-0.741,2.562-1.441,3.868-2.102c2.624-1.705,4.565-3.719,5.822-6.04c0.402-1.007,0.804-2.025,1.203-3.053
	c0.464-1.356,0.603-4.268,0.419-8.736c-0.143-2.208-0.259-4.3-0.35-6.277c-0.293-2.212-0.245-3.789,0.146-4.73
	c0.26-0.307,0.486-0.61,0.683-0.91c-0.246-2.345-0.553-4.822-0.92-7.432c-0.384-0.149-0.801-0.305-1.251-0.469
	c-3.056-0.255-7.69-0.215-13.904,0.119c-3.147,0.183-5.951,0.369-8.413,0.56c-2.359,0.308-4.75,0.619-7.173,0.934
	c-5.762,0.839-11.227,1.892-16.396,3.156c-3.49,0.99-6.977,2.013-10.459,3.066c-1.598,0.564-3.717,1.059-6.361,1.484l0.004,0.032
	c-0.706,0.015-1.412,0.02-2.12,0.014c-1.625,0.033-2.991-0.006-4.099-0.117c-1.697-0.194-5.245-0.522-10.642-0.985
	c-5.288-0.282-10.877-0.328-16.767-0.137c-2.902,0.091-5.288,0.209-7.154,0.354c-2.827,0.339-5.654,0.678-8.481,1.017
	c-6.226,0.892-10.808,1.812-13.747,2.762c-0.472,0.16-0.965,0.397-1.48,0.711c0.423,2.71,0.808,5.456,1.155,8.239
	C210.752,193.043,211.12,193.312,211.494,193.869z"/>
</svg>
